<?xml version="1.0" encoding="utf-8"?>
<!-- Generator: Adobe Illustrator 23.0.0, SVG Export Plug-In . SVG Version: 6.00 Build 0)  -->
<svg version="1.1" id="Capa_1" xmlns="http://www.w3.org/2000/svg" xmlns:xlink="http://www.w3.org/1999/xlink" x="0px" y="0px"
	 viewBox="0 0 612 792" style="enable-background:new 0 0 612 792;" xml:space="preserve">
<g>
	<g>
		<g>
			<path d="M225.19,21.9v78.22h-34.2V73.59c-15.25-0.09-30.49-0.09-45.74-0.09c2.41,41.87,4.48,84.42,6.29,127.67
				c1.72,43.07,3.1,85.63,4.13,127.49c-26.62,18.35-53.32,36.7-80.03,55.05C79.78,280.25,84,176.79,88.14,73.33
				c-14.73,0.09-29.46,0.09-44.19,0.17v26.62H9.83V21.9H225.19z"/>
		</g>
	</g>
	<path d="M155.64,354.03c-26.5,18.01-52.99,36.03-79.49,54.04c-0.13-4.23-0.27-8.47-0.4-12.7l79.58-54.25
		C155.43,345.43,155.54,349.73,155.64,354.03z"/>
	<g>
		<path d="M155.67,460.5c-13.7,27.82-27.39,55.56-41.09,83.39c-12.92-27.83-25.93-55.56-38.85-83.39v-42.73
			c26.45-16.71,52.98-33.42,79.43-50.05C155.33,398.65,155.5,429.57,155.67,460.5z"/>
	</g>
	<path d="M187.36,523.51"/>
</g>
<path d="M218.11,124.38v263.06h-24.56V124.38H218.11z"/>
<path d="M325.26,124c11.89,0,23.03,2.46,33.41,7.36c10.37,4.91,19.42,11.52,27.13,19.81c7.69,8.31,13.76,18.06,18.19,29.26
	c4.42,11.2,6.65,23.21,6.65,36.04c0,12.84-2.23,24.79-6.66,35.86c-4.45,11.07-10.53,20.75-18.24,29.06
	c-7.72,8.31-16.78,14.85-27.18,19.63c-10.4,4.79-21.56,7.17-33.49,7.17h-42.44v79.26h-23.84V124H325.26z M325.2,282.89
	c8.45,0,16.42-1.75,23.93-5.28c7.51-3.52,14.07-8.29,19.71-14.34c5.62-6.04,10.03-13.07,13.2-21.13c3.17-8.05,4.74-16.6,4.74-25.66
	s-1.57-17.62-4.74-25.66c-3.17-8.05-7.58-15.1-13.2-21.13c-5.64-6.05-12.2-10.83-19.71-14.34c-7.51-3.52-15.48-5.28-23.93-5.28
	h-42.58v132.85H325.2z"/>
<path d="M503.76,124c11.89,0,23.03,2.46,33.41,7.36c10.37,4.91,19.42,11.52,27.13,19.81c7.69,8.31,13.76,18.06,18.19,29.26
	c4.42,11.2,6.65,23.21,6.65,36.04c0,12.84-2.23,24.79-6.66,35.86c-4.45,11.07-10.53,20.75-18.24,29.06
	c-7.72,8.31-16.78,14.85-27.18,19.63c-10.4,4.79-21.56,7.17-33.49,7.17h-42.44v79.26h-23.84V124H503.76z M503.71,282.89
	c8.45,0,16.42-1.75,23.93-5.28c7.51-3.52,14.07-8.29,19.71-14.34c5.62-6.04,10.03-13.07,13.2-21.13c3.17-8.05,4.74-16.6,4.74-25.66
	s-1.57-17.62-4.74-25.66c-3.17-8.05-7.58-15.1-13.2-21.13c-5.64-6.05-12.2-10.83-19.71-14.34c-7.51-3.52-15.48-5.28-23.93-5.28
	h-42.58v132.85H503.71z"/>
<g>
	<path d="M229.45,444.49c1.43,2.24,2.14,4.64,2.14,7.21c0,2.21-0.5,4.31-1.51,6.31s-2.47,3.75-4.37,5.24
		c-3.93,2.99-8.5,4.48-13.71,4.48c-2.58,0-5.05-0.39-7.4-1.17c-2.36-0.78-4.46-1.88-6.31-3.31c-3.2-2.51-5.13-5.59-5.8-9.23
		l3.61-2.15c0.17,3.28,1.68,5.97,4.54,8.06c1.46,1.2,3.17,2.11,5.13,2.73c1.96,0.63,4.04,0.94,6.22,0.94
		c4.49,0,8.27-1.22,11.36-3.67c2.97-2.33,4.46-5.07,4.46-8.24c0-1.85-0.55-3.59-1.64-5.2c-1.09-1.61-2.62-2.99-4.58-4.12
		c-1.85-1.02-5.16-1.82-9.93-2.42c-0.39-0.06-1.81-0.3-4.25-0.72c-2.44-0.42-4.53-1.07-6.27-1.97c-2.75-1.43-4.91-3.33-6.48-5.69
		c-1.57-2.36-2.36-4.91-2.36-7.66c0-2.21,0.52-4.28,1.56-6.23c1.04-1.94,2.51-3.66,4.42-5.15c1.85-1.43,3.95-2.54,6.31-3.32
		c2.36-0.77,4.82-1.16,7.4-1.16c5.22,0,9.79,1.49,13.71,4.48c3.25,2.63,5.16,5.68,5.72,9.14l-3.61,2.15
		c-0.06-1.49-0.47-2.92-1.22-4.3c-0.76-1.37-1.84-2.63-3.24-3.76c-1.51-1.2-3.25-2.11-5.22-2.73c-1.96-0.63-4.01-0.94-6.14-0.94
		c-2.13,0-4.19,0.31-6.18,0.94c-1.99,0.63-3.72,1.54-5.18,2.73c-1.46,1.13-2.58,2.4-3.37,3.81c-0.78,1.4-1.18,2.85-1.18,4.35
		c0,1.85,0.65,3.69,1.94,5.51c1.29,1.82,2.89,3.24,4.79,4.26c1.18,0.6,2.48,1.03,3.91,1.3c1.43,0.27,3.27,0.55,5.51,0.85
		c0.39,0.06,1.37,0.21,2.94,0.44c1.57,0.24,3.08,0.57,4.54,0.99c1.46,0.42,2.69,0.93,3.7,1.52
		C226.01,440.36,228.02,442.25,229.45,444.49z"/>
	<path d="M246.82,467.02v-58.23h3.79v58.23H246.82z"/>
	<path d="M302.47,444.49c1.43,2.24,2.14,4.64,2.14,7.21c0,2.21-0.5,4.31-1.51,6.31s-2.47,3.75-4.37,5.24
		c-3.93,2.99-8.5,4.48-13.71,4.48c-2.58,0-5.05-0.39-7.4-1.17c-2.36-0.78-4.46-1.88-6.31-3.31c-3.2-2.51-5.13-5.59-5.8-9.23
		l3.61-2.15c0.17,3.28,1.68,5.97,4.54,8.06c1.46,1.2,3.17,2.11,5.13,2.73c1.96,0.63,4.04,0.94,6.22,0.94
		c4.49,0,8.27-1.22,11.36-3.67c2.97-2.33,4.46-5.07,4.46-8.24c0-1.85-0.55-3.59-1.64-5.2c-1.09-1.61-2.62-2.99-4.58-4.12
		c-1.85-1.02-5.16-1.82-9.93-2.42c-0.39-0.06-1.81-0.3-4.25-0.72c-2.44-0.42-4.53-1.07-6.27-1.97c-2.75-1.43-4.91-3.33-6.48-5.69
		c-1.57-2.36-2.36-4.91-2.36-7.66c0-2.21,0.52-4.28,1.56-6.23c1.04-1.94,2.51-3.66,4.42-5.15c1.85-1.43,3.95-2.54,6.31-3.32
		c2.36-0.77,4.82-1.16,7.4-1.16c5.22,0,9.79,1.49,13.71,4.48c3.25,2.63,5.16,5.68,5.72,9.14l-3.61,2.15
		c-0.06-1.49-0.47-2.92-1.22-4.3s-1.84-2.63-3.24-3.76c-1.51-1.2-3.25-2.11-5.22-2.73c-1.96-0.63-4.01-0.94-6.14-0.94
		c-2.13,0-4.19,0.31-6.18,0.94c-1.99,0.63-3.72,1.54-5.18,2.73c-1.46,1.13-2.58,2.4-3.37,3.81c-0.78,1.4-1.18,2.85-1.18,4.35
		c0,1.85,0.65,3.69,1.94,5.51c1.29,1.82,2.89,3.24,4.79,4.26c1.18,0.6,2.48,1.03,3.91,1.3s3.27,0.55,5.51,0.85
		c0.39,0.06,1.37,0.21,2.94,0.44c1.57,0.24,3.08,0.57,4.54,0.99c1.46,0.42,2.69,0.93,3.7,1.52
		C299.04,440.36,301.04,442.25,302.47,444.49z"/>
	<path d="M360.39,408.79v4.12h-21.62v54.12h-3.87v-54.12H313.2v-4.12H360.39z"/>
	<path d="M372.59,467.02v-58.23h35.42v4.12h-31.63v22.94h24.65v4.12h-24.65v22.85h31.63v4.21H372.59z"/>
	<path d="M475.06,467.02v-46.05l-24.23,36.82l-24.57-36.92v46.14h-3.79v-58.95l28.35,42.65l28.02-42.65v58.95H475.06z"/>
	<path d="M501.48,452.24L495,467.02h-4.21l25.74-58.95l24.32,58.95h-4.13l-6.14-14.78H501.48z M516.37,418.02l-13.12,30.19h25.66
		L516.37,418.02z"/>
	<path d="M587,444.49c1.43,2.24,2.14,4.64,2.14,7.21c0,2.21-0.5,4.31-1.51,6.31c-1.01,2-2.47,3.75-4.37,5.24
		c-3.93,2.99-8.5,4.48-13.71,4.48c-2.58,0-5.05-0.39-7.4-1.17c-2.36-0.78-4.46-1.88-6.31-3.31c-3.2-2.51-5.13-5.59-5.8-9.23
		l3.61-2.15c0.17,3.28,1.68,5.97,4.54,8.06c1.46,1.2,3.17,2.11,5.13,2.73c1.96,0.63,4.04,0.94,6.22,0.94
		c4.49,0,8.27-1.22,11.36-3.67c2.97-2.33,4.46-5.07,4.46-8.24c0-1.85-0.55-3.59-1.64-5.2c-1.09-1.61-2.62-2.99-4.58-4.12
		c-1.85-1.02-5.16-1.82-9.93-2.42c-0.39-0.06-1.81-0.3-4.25-0.72c-2.44-0.42-4.53-1.07-6.27-1.97c-2.75-1.43-4.91-3.33-6.48-5.69
		c-1.57-2.36-2.36-4.91-2.36-7.66c0-2.21,0.52-4.28,1.56-6.23c1.04-1.94,2.51-3.66,4.42-5.15c1.85-1.43,3.95-2.54,6.31-3.32
		c2.36-0.77,4.82-1.16,7.4-1.16c5.22,0,9.79,1.49,13.71,4.48c3.25,2.63,5.16,5.68,5.72,9.14l-3.61,2.15
		c-0.06-1.49-0.47-2.92-1.22-4.3s-1.84-2.63-3.24-3.76c-1.51-1.2-3.25-2.11-5.22-2.73c-1.96-0.63-4.01-0.94-6.14-0.94
		c-2.13,0-4.19,0.31-6.18,0.94c-1.99,0.63-3.72,1.54-5.18,2.73c-1.46,1.13-2.58,2.4-3.37,3.81c-0.78,1.4-1.18,2.85-1.18,4.35
		c0,1.85,0.65,3.69,1.94,5.51c1.29,1.82,2.89,3.24,4.79,4.26c1.18,0.6,2.48,1.03,3.91,1.3s3.27,0.55,5.51,0.85
		c0.39,0.06,1.37,0.21,2.94,0.44c1.57,0.24,3.08,0.57,4.54,0.99c1.46,0.42,2.69,0.93,3.7,1.52
		C583.56,440.36,585.56,442.25,587,444.49z"/>
</g>
</svg>
